<svg width="40" height="40" viewBox="0 0 40 40" fill="none" xmlns="http://www.w3.org/2000/svg">
<path d="M1.1944 17.3192L0 16.6211V9.97282L4.56391 12.6398C5.33993 13.0934 6.36338 12.7455 6.6498 11.8855C6.87698 11.204 6.58907 10.4992 6.01623 10.1648L0 6.6483V0L9.58144 5.60011C10.0231 5.85803 10.2945 6.33639 10.2922 6.85299L10.2555 15.1291C10.2532 15.6457 10.5247 16.124 10.9663 16.3819L12.657 17.3701C13.1234 17.6431 13.3978 18.1589 13.3656 18.7033L13.1751 21.9161C13.1121 22.9845 11.9605 23.6113 11.045 23.0767L7.57802 21.0501C7.1454 20.7974 6.87548 20.3333 6.86723 19.8279L6.823 17.1617C6.80425 16.0258 5.55437 15.3592 4.61789 15.9846L2.68871 17.2742C2.23959 17.5748 1.66076 17.5921 1.1944 17.3199V17.3192ZM14.6874 31.4143L18.1552 29.3876C19.0706 28.8523 19.1096 27.5297 18.2279 26.9396L15.5744 25.1664C15.1253 24.8657 14.5465 24.8485 14.0801 25.1214L12.3894 26.1096C11.9477 26.3675 11.4027 26.3668 10.9618 26.1066L3.8996 21.9363C3.45873 21.6761 2.91439 21.6746 2.47202 21.9333L0 23.3781V30.0264L4.55641 27.3632C4.97104 27.121 5.48164 27.0768 5.91351 27.286C6.96021 27.7943 6.99994 29.2587 6.01623 29.8337L0 33.3502V39.9985L8.30306 35.1452C8.76942 34.8723 9.04384 34.3564 9.0116 33.8121L8.87289 31.4758C8.80541 30.3421 10.0013 29.5796 10.9828 30.1306L13.2861 31.4248C13.7225 31.6699 14.2548 31.6654 14.6867 31.4128L14.6874 31.4143ZM14.9476 14.9761L17.7915 13.5365C18.2729 13.2928 18.5773 12.7942 18.5773 12.2492V10.2727C18.5773 9.75613 18.851 9.27927 19.2941 9.02285L26.3922 4.91631C26.8354 4.65988 27.109 4.18302 27.109 3.66642V0H21.4212V2.82292C21.4212 3.49247 20.9616 4.0968 20.2658 4.2385C19.3871 4.41695 18.578 3.69416 18.578 2.78693V0H12.8902V2.17286C12.8902 2.71795 13.1946 3.21656 13.676 3.46023L15.7439 4.50693C16.7471 5.01528 16.8018 6.44436 15.8398 7.02844L13.5808 8.40053C13.1526 8.66071 12.8902 9.12932 12.8902 9.63467V13.6872C12.8902 14.7572 14.0029 15.453 14.9484 14.9746L14.9476 14.9761ZM37.3098 22.7258L35.3806 24.0154C34.4441 24.6415 33.1942 23.9742 33.1755 22.8383L33.1313 20.1721C33.123 19.6667 32.8531 19.2026 32.4205 18.9499L28.9535 16.9233C28.038 16.3879 26.8864 17.0155 26.8234 18.0839L26.6329 21.2967C26.6007 21.8411 26.8751 22.3569 27.3415 22.6299L29.0322 23.6181C29.4738 23.876 29.7453 24.3543 29.743 24.8709L29.7063 33.147C29.704 33.6636 29.9754 34.142 30.4171 34.3999L39.9985 40V33.3517L34.0205 29.8577C33.6059 29.6156 33.3127 29.1897 33.276 28.7061C33.1875 27.5342 34.4209 26.7671 35.4046 27.3422L39.9985 30.0272V23.3789L38.8041 22.6808C38.3377 22.4079 37.7589 22.4259 37.3098 22.7258ZM25.0509 25.0231L22.207 26.4627C21.7256 26.7064 21.4212 27.205 21.4212 27.7501V29.7265C21.4212 30.2431 21.1475 30.72 20.7044 30.9764L13.6063 35.0829C13.1631 35.3394 12.8895 35.8162 12.8895 36.3328V39.9993H18.5773V37.1763C18.5773 36.5068 19.0369 35.9025 19.7327 35.7607C20.6114 35.5816 21.4205 36.3051 21.4205 37.2123V39.9993H27.1083V37.8264C27.1083 37.2813 26.8039 36.7827 26.3225 36.539L24.2546 35.4923C23.2514 34.9847 23.1967 33.5549 24.1587 32.9708L26.4177 31.5987C26.8459 31.3385 27.1083 30.8699 27.1083 30.3646V26.312C27.1083 25.2421 25.9956 24.5463 25.0501 25.0247L25.0509 25.0231ZM33.9823 10.1655L39.9985 6.64905V0.00074994L31.6954 4.85407C31.2291 5.12699 30.9547 5.64284 30.9869 6.18718L31.1256 8.5235C31.1931 9.65716 29.9972 10.4197 29.0165 9.86785L26.7132 8.57373C26.2768 8.32855 25.7444 8.33305 25.3118 8.58573L21.8448 10.6124C20.9294 11.1477 20.8904 12.4703 21.7721 13.0604L24.4256 14.8336C24.8747 15.1343 25.4535 15.1516 25.9199 14.8786L27.6106 13.8904C28.0523 13.6325 28.5973 13.6332 29.0382 13.8934L36.1004 18.0637C36.5413 18.3239 37.0856 18.3254 37.528 18.0667L40 16.6219V9.97357L35.4436 12.6368C35.029 12.879 34.5184 12.9232 34.0865 12.714C33.0398 12.2057 33.0001 10.7413 33.9838 10.1663L33.9823 10.1655Z" fill="#84CC16"/>
</svg>
